<svg width="15" height="15" viewBox="0 0 15 15" fill="none" xmlns="http://www.w3.org/2000/svg">
<path d="M1.13712 6.25418H5.11706C5.41864 6.25418 5.70787 6.13438 5.92112 5.92112C6.13438 5.70787 6.25418 5.41864 6.25418 5.11706V1.13712C6.25418 0.83554 6.13438 0.546308 5.92112 0.333056C5.70787 0.119804 5.41864 0 5.11706 0H1.13712C0.83554 0 0.546308 0.119804 0.333056 0.333056C0.119804 0.546308 0 0.83554 0 1.13712V5.11706C0 5.41864 0.119804 5.70787 0.333056 5.92112C0.546308 6.13438 0.83554 6.25418 1.13712 6.25418ZM1.70569 1.70569H4.54849V4.54849H1.70569V1.70569Z" fill="white"/>
<path d="M1.13712 14.7826H5.11706C5.41864 14.7826 5.70787 14.6628 5.92112 14.4496C6.13438 14.2363 6.25418 13.9471 6.25418 13.6455V9.66555C6.25418 9.36397 6.13438 9.07474 5.92112 8.86148C5.70787 8.64823 5.41864 8.52843 5.11706 8.52843H1.13712C0.83554 8.52843 0.546308 8.64823 0.333056 8.86148C0.119804 9.07474 0 9.36397 0 9.66555V13.6455C0 13.9471 0.119804 14.2363 0.333056 14.4496C0.546308 14.6628 0.83554 14.7826 1.13712 14.7826ZM1.70569 10.2341H4.54849V13.0769H1.70569V10.2341Z" fill="white"/>
<path d="M9.66557 6.25418H13.6455C13.9471 6.25418 14.2363 6.13438 14.4496 5.92112C14.6628 5.70787 14.7826 5.41864 14.7826 5.11706V1.13712C14.7826 0.83554 14.6628 0.546308 14.4496 0.333056C14.2363 0.119804 13.9471 0 13.6455 0H9.66557C9.36398 0 9.07475 0.119804 8.8615 0.333056C8.64825 0.546308 8.52844 0.83554 8.52844 1.13712V5.11706C8.52844 5.41864 8.64825 5.70787 8.8615 5.92112C9.07475 6.13438 9.36398 6.25418 9.66557 6.25418ZM10.2341 1.70569H13.0769V4.54849H10.2341V1.70569Z" fill="white"/>
<path d="M12.5084 10.8027H10.8027V12.5084H12.5084V10.8027Z" fill="white"/>
<path d="M14.214 9.52341C14.214 9.41031 14.1691 9.30185 14.0892 9.22188C14.0092 9.14191 13.9007 9.09698 13.7876 9.09698H12.5084V10.8027H14.214V9.52341Z" fill="white"/>
<path d="M9.52341 9.09698C9.41031 9.09698 9.30185 9.14191 9.22188 9.22188C9.14191 9.30185 9.09698 9.41031 9.09698 9.52341V10.8027H10.8027V9.09698H9.52341Z" fill="white"/>
<path d="M13.7876 14.214C13.9007 14.214 14.0092 14.1691 14.0892 14.0892C14.1691 14.0092 14.214 13.9007 14.214 13.7876V12.5084H12.5084V14.214H13.7876Z" fill="white"/>
<path d="M9.09698 13.7876C9.09698 13.9007 9.14191 14.0092 9.22188 14.0892C9.30185 14.1691 9.41031 14.214 9.52341 14.214H10.8027V12.5084H9.09698V13.7876Z" fill="white"/>
</svg>
